# xmcd CD database file
#
# Track frame offsets:
#	150
#	13606
#	25458
#	34922
#	50479
#	64017
#	80557
#	95647
#	104130
#	117806
#	131131
#	150563
#	174329
#
# Disc length: 2532 seconds
#
# Revision: 2
# Processed by: cddbd v1.5.2PL0 Copyright (c) Steve Scherf et al.
# Submitted via: CDex 1.70beta2
#
DISCID=ae09e20d
DTITLE=BRAHMAN - 超克
DYEAR=2013
DGENRE=Rock
TTITLE0=初期衝動
TTITLE1=賽の河原
TTITLE2=今際の際
TTITLE3=俤
TTITLE4=露命
TTITLE5=空谷の跫音
TTITLE6=遠国
TTITLE7=警醒
TTITLE8=最終章
TTITLE9=Jesus Was a Cross Maker
TTITLE10=鼎の問
TTITLE11=霹靂
TTITLE12=空ヲ掴ム
EXTD=YEAR: 2013
EXTT0=
EXTT1=
EXTT2=
EXTT3=
EXTT4=
EXTT5=
EXTT6=
EXTT7=
EXTT8=
EXTT9=
EXTT10=
EXTT11=
EXTT12=
PLAYORDER=
